<svg xmlns="http://www.w3.org/2000/svg" version="1.1" xmlns:xlink="http://www.w3.org/1999/xlink" xmlns:svgjs="http://svgjs.dev/svgjs" width="1000" height="1000" viewBox="0 0 1000 1000"><rect width="1000" height="1000" fill="#ffffff"></rect><g transform="matrix(0.7,0,0,0.7,149.5757596445855,282.1265587044535)"><svg viewBox="0 0 396 247" data-background-color="#ffffff" preserveAspectRatio="xMidYMid meet" height="623" width="1000" xmlns="http://www.w3.org/2000/svg" xmlns:xlink="http://www.w3.org/1999/xlink"><g id="tight-bounds" transform="matrix(1,0,0,1,0.23999882963448727,-0.09999999999999432)"><svg viewBox="0 0 395.52 247.2" height="247.2" width="395.52"><g><svg></svg></g><g><svg viewBox="0 0 395.52 247.2" height="247.2" width="395.52"><g><g><path xmlns="http://www.w3.org/2000/svg" d="M118.249 52.161c-0.538 5.651-0.901 11.126-1.09 16.427-0.215 5.328-0.323 9.404-0.323 12.229 0 3.094 0.067 6.054 0.202 8.88 0.07 1.477 0.141 2.843 0.211 4.1l-4.896 0c-1.284-8.599-2.911-15.482-4.881-20.648-2.233-5.785-5.435-9.956-9.606-12.512-4.171-2.556-10.158-3.834-17.96-3.834h-8.678l0 36.994h-23.207v-36.995h-8.88c-7.534 0-13.454 1.278-17.759 3.835-4.305 2.556-7.534 6.727-9.686 12.512-1.922 5.166-3.523 12.049-4.802 20.648l-4.766 0c0.094-1.256 0.162-2.623 0.204-4.1 0.054-2.825 0.081-5.785 0.081-8.88 0-2.825-0.094-6.902-0.283-12.229-0.215-5.301-0.592-10.776-1.13-16.427 5.785 0.135 12.108 0.269 18.97 0.404 6.861 0.135 13.79 0.202 20.786 0.201 6.996 0 13.319 0 18.969 0 5.651 0 11.906 0 18.768 0 6.861 0 13.79-0.067 20.786-0.201 6.996-0.135 13.319-0.269 18.97-0.404zM71.228 171.831c0 5.381 0.511 9.418 1.534 12.109 0.996 2.691 3.014 4.467 6.054 5.327 3.014 0.888 7.413 1.466 13.198 1.736v4.036c-3.767-0.269-8.61-0.444-14.53-0.525-5.92-0.054-11.974-0.081-18.162-0.08-6.458 0-12.539 0.027-18.244 0.08-5.731 0.081-10.346 0.256-13.843 0.525v-4.036c5.785-0.269 10.158-0.848 13.117-1.736 2.96-0.861 4.978-2.637 6.054-5.327 1.076-2.691 1.614-6.727 1.615-12.109v-18.428l23.207 0zM216.528 195.039v-4.036c4.574-0.269 8.005-0.807 10.292-1.615 2.287-0.807 3.807-2.422 4.561-4.843 0.727-2.422 1.09-6.054 1.089-10.897l0-20.245h23.208v20.245c0 4.843 0.404 8.476 1.211 10.897 0.807 2.422 2.354 4.036 4.641 4.843 2.287 0.807 5.651 1.345 10.091 1.615v4.036c-2.96-0.269-6.861-0.444-11.705-0.525-4.843-0.054-10.09-0.081-15.741-0.08-4.978 0-9.983 0.027-15.014 0.08-5.059 0.081-9.27 0.256-12.633 0.525zM170.92 173.648c0 4.843 0.404 8.476 1.211 10.897 0.807 2.422 2.354 4.036 4.641 4.843 2.287 0.807 5.651 1.345 10.091 1.615v4.036c-3.229-0.269-7.292-0.444-12.189-0.525-4.924-0.054-9.942-0.081-15.055-0.08-5.651 0-10.924 0.027-15.822 0.08-4.924 0.081-8.933 0.256-12.027 0.525v-4.036c4.574-0.269 8.005-0.807 10.292-1.615 2.287-0.807 3.807-2.422 4.561-4.843 0.727-2.422 1.09-6.054 1.089-10.897v-20.245h23.208zM147.712 73.552c0-4.978-0.363-8.651-1.089-11.018-0.753-2.341-2.301-3.942-4.642-4.803-2.368-0.888-5.772-1.399-10.211-1.534v-4.036c3.094 0.135 7.104 0.269 12.027 0.404 4.897 0.135 10.171 0.202 15.822 0.201 5.112 0 10.131-0.067 15.054-0.201 4.897-0.135 8.96-0.269 12.19-0.404v4.036c-4.44 0.135-7.803 0.646-10.091 1.534-2.287 0.861-3.834 2.462-4.641 4.803-0.807 2.368-1.211 6.041-1.211 11.018l0 20.245-23.208 0zM232.47 73.552c0-4.978-0.363-8.651-1.089-11.018-0.753-2.341-2.301-3.942-4.642-4.803-2.368-0.888-5.772-1.399-10.211-1.534v-4.036c3.363 0.135 7.574 0.269 12.633 0.404 5.032 0.135 10.036 0.202 15.014 0.201 5.651 0 10.897-0.067 15.741-0.201 4.843-0.135 8.745-0.269 11.705-0.404v4.036c-4.44 0.135-7.803 0.646-10.091 1.534-2.287 0.861-3.834 2.462-4.641 4.803-0.807 2.368-1.211 6.041-1.211 11.018l0 20.245h-23.208zM390.484 52.161c-0.538 5.112-0.901 10.05-1.09 14.812-0.215 4.79-0.323 8.462-0.323 11.019 0 2.556 0.067 4.978 0.202 7.265 0.135 2.287 0.269 4.171 0.404 5.651h-4.642c-0.942-8.61-2.381-15.404-4.318-20.383-1.964-4.978-4.857-8.516-8.678-10.615-3.848-2.072-9.202-3.108-16.064-3.108h-13.924c-4.305 0-7.561 0.363-9.768 1.09-2.233 0.753-3.754 2.233-4.56 4.44-0.807 2.233-1.211 5.704-1.211 10.413l0 21.052-23.208 0v-20.245c0-4.978-0.363-8.651-1.09-11.018-0.753-2.341-2.301-3.942-4.641-4.803-2.368-0.888-5.772-1.399-10.212-1.534v-4.036c6.861 0.135 14.234 0.269 22.118 0.404 7.857 0.135 15.256 0.202 22.199 0.201 6.915 0 12.458 0 16.629 0 6.189 0 13.225-0.027 21.108-0.08 7.857-0.081 14.88-0.256 21.069-0.525zM326.512 174.455c0 4.574 0.404 8.005 1.21 10.292 0.807 2.287 2.327 3.794 4.561 4.52 2.206 0.753 5.462 1.13 9.768 1.13h13.117c7.669 0 13.763-1.211 18.284-3.632 4.494-2.422 7.924-6.391 10.292-11.907 2.246-5.293 3.973-12.445 5.178-21.455h4.681c-0.33 3.739-0.496 8.469-0.496 14.191 0 2.691 0.108 6.592 0.323 11.704 0.188 5.112 0.552 10.359 1.09 15.741-6.861-0.269-14.597-0.444-23.208-0.525-8.61-0.054-16.279-0.081-23.005-0.08-4.171 0-9.714 0-16.629 0-6.942 0-14.342 0.027-22.199 0.08-7.884 0.081-15.256 0.256-22.118 0.525v-4.036c4.574-0.269 8.005-0.807 10.293-1.615 2.287-0.807 3.807-2.422 4.56-4.843 0.727-2.422 1.09-6.054 1.09-10.897l0-20.245h23.208z" fill="#010c80" fill-rule="nonzero" stroke="none" stroke-width="1" stroke-linecap="butt" stroke-linejoin="miter" stroke-miterlimit="10" stroke-dasharray="" stroke-dashoffset="0" font-family="none" font-weight="none" font-size="none" text-anchor="none" style="mix-blend-mode: normal" data-fill-palette-color="tertiary"></path></g></g><g transform="matrix(1,0,0,1,0,100.5295823331733)"><svg viewBox="0 0 395.52 46.140835333653385" height="46.140835333653385" width="395.52"><g><svg viewBox="0 0 395.52 46.140835333653385" height="46.140835333653385" width="395.52"><g><svg viewBox="0 0 395.52 46.140835333653385" height="46.140835333653385" width="395.52"><g><svg viewBox="0 0 395.52 46.140835333653385" height="46.140835333653385" width="395.52"><g><svg viewBox="0 0 395.52 46.140835333653385" height="46.140835333653385" width="395.52"><g><svg viewBox="0 0 395.52 46.140835333653385" height="46.140835333653385" width="395.52"><g transform="matrix(1,0,0,1,0,0)"><svg width="395.52" viewBox="1.399999976158142 -39.20000076293945 416.55999755859375 48.599998474121094" height="46.140835333653385" data-palette-color="#010c80"><path d="M30.45-35.4L30.45-35.4Q30.25-33.3 30.18-31.33 30.1-29.35 30.1-28.3L30.1-28.3Q30.1-27.15 30.15-26.1 30.2-25.05 30.25-24.3L30.25-24.3 29.1-24.3Q28.6-28.05 27.78-30.2 26.95-32.35 25.4-33.3 23.85-34.25 20.95-34.25L20.95-34.25 18.8-34.25 18.8-5.75Q18.8-3.75 19.18-2.75 19.55-1.75 20.68-1.43 21.8-1.1 23.95-1L23.95-1 23.95 0Q22.55-0.1 20.35-0.13 18.15-0.15 15.85-0.15L15.85-0.15Q13.45-0.15 11.33-0.13 9.2-0.1 7.9 0L7.9 0 7.9-1Q10.05-1.1 11.15-1.43 12.25-1.75 12.65-2.75 13.05-3.75 13.05-5.75L13.05-5.75 13.05-34.25 10.85-34.25Q8.05-34.25 6.45-33.3 4.85-32.35 4.05-30.2 3.25-28.05 2.75-24.3L2.75-24.3 1.6-24.3Q1.7-25.05 1.73-26.1 1.75-27.15 1.75-28.3L1.75-28.3Q1.75-29.35 1.68-31.33 1.6-33.3 1.4-35.4L1.4-35.4Q3.55-35.35 6.1-35.3 8.65-35.25 11.25-35.25 13.85-35.25 15.95-35.25L15.95-35.25Q18.05-35.25 20.6-35.25 23.15-35.25 25.75-35.3 28.35-35.35 30.45-35.4ZM41.55-39.15L41.55-39.15 41.55-20.95Q42.8-24.05 45.07-25.28 47.35-26.5 49.9-26.5L49.9-26.5Q51.9-26.5 53.17-25.98 54.45-25.45 55.3-24.55L55.3-24.55Q56.2-23.6 56.6-22.1 57-20.6 57-18.05L57-18.05 57-4.65Q57-2.55 57.82-1.8 58.65-1.05 60.6-1.05L60.6-1.05 60.6 0Q59.7-0.05 57.9-0.13 56.1-0.2 54.4-0.2L54.4-0.2Q52.65-0.2 50.97-0.13 49.3-0.05 48.5 0L48.5 0 48.5-1.05Q50.2-1.05 50.9-1.8 51.6-2.55 51.6-4.65L51.6-4.65 51.6-19.45Q51.6-20.9 51.35-22.08 51.1-23.25 50.27-23.98 49.45-24.7 47.85-24.7L47.85-24.7Q45.15-24.7 43.35-22.48 41.55-20.25 41.55-16.75L41.55-16.75 41.55-4.65Q41.55-2.55 42.25-1.8 42.95-1.05 44.65-1.05L44.65-1.05 44.65 0Q43.8-0.05 42.17-0.13 40.55-0.2 38.85-0.2L38.85-0.2Q37.1-0.2 35.27-0.13 33.45-0.05 32.55 0L32.55 0 32.55-1.05Q34.5-1.05 35.32-1.8 36.15-2.55 36.15-4.65L36.15-4.65 36.15-33.15Q36.15-35.4 35.37-36.48 34.6-37.55 32.55-37.55L32.55-37.55 32.55-38.6Q34.15-38.45 35.65-38.45L35.65-38.45Q37.3-38.45 38.8-38.63 40.3-38.8 41.55-39.15ZM75.05-26.5L75.05-26.5Q79.45-26.5 81.95-23.85 84.45-21.2 84.45-15.45L84.45-15.45 67.2-15.45 67.09-16.4 79.15-16.4Q79.2-18.85 78.75-20.93 78.3-23 77.34-24.25 76.4-25.5 74.84-25.5L74.84-25.5Q72.7-25.5 71.12-23.23 69.55-20.95 69.2-15.95L69.2-15.95 69.34-15.7Q69.3-15 69.25-14.18 69.2-13.35 69.2-12.55L69.2-12.55Q69.2-9.1 70.25-6.75 71.3-4.4 73-3.23 74.7-2.05 76.45-2.05L76.45-2.05Q78.45-2.05 80.32-3.05 82.2-4.05 83.55-6.75L83.55-6.75 84.55-6.35Q83.95-4.65 82.7-3 81.45-1.35 79.5-0.33 77.55 0.7 74.95 0.7L74.95 0.7Q71.45 0.7 68.84-0.88 66.25-2.45 64.84-5.4 63.45-8.35 63.45-12.4L63.45-12.4Q63.45-16.85 64.89-20 66.34-23.15 68.97-24.83 71.59-26.5 75.05-26.5ZM121.69 0L121.69 0 121.69-1Q123.39-1.1 124.24-1.4 125.09-1.7 125.37-2.6 125.64-3.5 125.64-5.3L125.64-5.3 125.64-30.1Q125.64-31.95 125.37-32.83 125.09-33.7 124.22-34.02 123.34-34.35 121.69-34.4L121.69-34.4 121.69-35.4Q122.94-35.35 124.82-35.3 126.69-35.25 128.54-35.25L128.54-35.25Q130.64-35.25 132.44-35.3 134.24-35.35 135.34-35.4L135.34-35.4 135.34-34.4Q133.69-34.35 132.84-34.02 131.99-33.7 131.69-32.83 131.39-31.95 131.39-30.1L131.39-30.1 131.39-5.3Q131.39-3.5 131.69-2.6 131.99-1.7 132.84-1.4 133.69-1.1 135.34-1L135.34-1 135.34 0Q134.24-0.1 132.44-0.13 130.64-0.15 128.54-0.15L128.54-0.15Q126.69-0.15 124.82-0.13 122.94-0.1 121.69 0ZM100.69 0L100.69 0 100.69-1Q102.39-1.1 103.24-1.4 104.09-1.7 104.37-2.6 104.64-3.5 104.64-5.3L104.64-5.3 104.64-30.1Q104.64-31.95 104.37-32.83 104.09-33.7 103.22-34.02 102.34-34.35 100.69-34.4L100.69-34.4 100.69-35.4Q101.84-35.35 103.67-35.3 105.49-35.25 107.59-35.25L107.59-35.25Q109.49-35.25 111.32-35.3 113.14-35.35 114.34-35.4L114.34-35.4 114.34-34.4Q112.69-34.35 111.84-34.02 110.99-33.7 110.69-32.83 110.39-31.95 110.39-30.1L110.39-30.1 110.39-5.3Q110.39-3.5 110.69-2.6 110.99-1.7 111.84-1.4 112.69-1.1 114.34-1L114.34-1 114.34 0Q113.14-0.1 111.32-0.13 109.49-0.15 107.59-0.15L107.59-0.15Q105.49-0.15 103.67-0.13 101.84-0.1 100.69 0ZM127.89-17.3L108.14-17.3 108.14-18.3 127.89-18.3 127.89-17.3ZM161.54-25.8L161.54-25.8 161.54-24.8Q160.59-24.65 159.79-23.83 158.99-23 158.24-21L158.24-21 150.44-0.1 149.24 1.1 139.49-21.95Q138.54-23.9 137.66-24.33 136.79-24.75 136.19-24.75L136.19-24.75 136.19-25.8Q137.44-25.65 138.84-25.58 140.24-25.5 141.74-25.5L141.74-25.5Q143.44-25.5 145.16-25.6 146.89-25.7 148.39-25.8L148.39-25.8 148.39-24.75Q147.19-24.75 146.26-24.58 145.34-24.4 145.06-23.63 144.79-22.85 145.54-21L145.54-21 151.74-5.75 151.39-5.6 156.44-19Q157.54-22 156.71-23.3 155.89-24.6 153.34-24.8L153.34-24.8 153.34-25.8Q154.59-25.75 155.61-25.7 156.64-25.65 157.74-25.65L157.74-25.65Q158.84-25.65 159.81-25.7 160.79-25.75 161.54-25.8ZM149.39-0.3L150.44-0.1 148.64 4.6Q147.69 7.1 146.49 8.1L146.49 8.1Q145.74 8.8 144.64 9.1 143.54 9.4 142.44 9.4L142.44 9.4Q141.39 9.4 140.46 9.03 139.54 8.65 138.94 7.9 138.34 7.15 138.34 6.05L138.34 6.05Q138.34 4.75 139.19 3.95 140.04 3.15 141.44 3.15L141.44 3.15Q142.69 3.15 143.54 3.83 144.39 4.5 144.39 5.8L144.39 5.8Q144.39 6.7 143.91 7.35 143.44 8 142.69 8.35L142.69 8.35Q142.84 8.4 142.99 8.4 143.14 8.4 143.24 8.4L143.24 8.4Q144.64 8.4 145.74 7.48 146.84 6.55 147.59 4.5L147.59 4.5 149.39-0.3ZM178.99-26.5L178.99-26.5Q182.99-26.5 185.66-23.18 188.34-19.85 188.34-13.1L188.34-13.1Q188.34-8.35 186.79-5.3 185.24-2.25 182.66-0.78 180.09 0.7 177.09 0.7L177.09 0.7Q174.74 0.7 172.59-0.48 170.44-1.65 169.29-4.05L169.29-4.05 170.19-3.8Q171.29-2.1 172.94-1.25 174.59-0.4 176.29-0.4L176.29-0.4Q179.44-0.4 181.01-3.45 182.59-6.5 182.59-12.85L182.59-12.85Q182.59-17 181.96-19.65 181.34-22.3 180.11-23.53 178.89-24.75 177.04-24.75L177.04-24.75Q174.89-24.75 173.09-22.9 171.29-21.05 170.94-17.55L170.94-17.55 170.44-18.6Q171.14-22.35 173.46-24.43 175.79-26.5 178.99-26.5ZM171.24-39.15L171.24-39.15 171.24-2.05Q170.39-1.75 169.49-1.3 168.59-0.85 167.79-0.33 166.99 0.2 166.29 0.8L166.29 0.8 165.49 0.4Q165.69-0.3 165.76-1 165.84-1.7 165.84-2.45L165.84-2.45 165.84-33.15Q165.84-35.4 165.06-36.48 164.29-37.55 162.24-37.55L162.24-37.55 162.24-38.6Q163.84-38.45 165.34-38.45L165.34-38.45Q166.99-38.45 168.49-38.63 169.99-38.8 171.24-39.15ZM207.98-26.5L207.98-26.5Q209.43-26.5 210.46-25.9 211.48-25.3 212.01-24.38 212.53-23.45 212.53-22.3L212.53-22.3Q212.53-20.85 211.66-19.83 210.78-18.8 209.33-18.8L209.33-18.8Q208.08-18.8 207.21-19.55 206.33-20.3 206.33-21.6L206.33-21.6Q206.33-22.7 206.91-23.48 207.48-24.25 208.23-24.7L208.23-24.7Q207.73-25.1 207.03-25.05L207.03-25.05Q205.23-24.95 203.86-23.58 202.48-22.2 201.68-20.25 200.88-18.3 200.88-16.65L200.88-16.65 200.88-5.15Q200.88-2.7 202.23-1.88 203.58-1.05 205.98-1.05L205.98-1.05 205.98 0Q204.83-0.05 202.71-0.13 200.58-0.2 198.23-0.2L198.23-0.2Q196.43-0.2 194.63-0.13 192.83-0.05 191.88 0L191.88 0 191.88-1.05Q193.83-1.05 194.66-1.8 195.48-2.55 195.48-4.65L195.48-4.65 195.48-20.35Q195.48-22.6 194.73-23.68 193.98-24.75 191.88-24.75L191.88-24.75 191.88-25.8Q193.48-25.65 194.98-25.65L194.98-25.65Q196.68-25.65 198.16-25.83 199.63-26 200.88-26.35L200.88-26.35 200.88-20.6Q201.48-22.05 202.48-23.4 203.48-24.75 204.88-25.63 206.28-26.5 207.98-26.5ZM220.48-38.4L220.48-38.4Q222.03-38.4 223.08-37.43 224.13-36.45 224.13-35L224.13-35Q224.13-33.55 223.08-32.58 222.03-31.6 220.48-31.6L220.48-31.6Q218.93-31.6 217.88-32.58 216.83-33.55 216.83-35L216.83-35Q216.83-36.45 217.88-37.43 218.93-38.4 220.48-38.4ZM223.48-26.35L223.48-26.35 223.48-4.65Q223.48-2.55 224.31-1.8 225.13-1.05 227.08-1.05L227.08-1.05 227.08 0Q226.23-0.05 224.46-0.13 222.68-0.2 220.83-0.2L220.83-0.2Q219.08-0.2 217.23-0.13 215.38-0.05 214.48 0L214.48 0 214.48-1.05Q216.43-1.05 217.26-1.8 218.08-2.55 218.08-4.65L218.08-4.65 218.08-20.35Q218.08-22.6 217.33-23.68 216.58-24.75 214.48-24.75L214.48-24.75 214.48-25.8Q216.08-25.65 217.58-25.65L217.58-25.65Q219.28-25.65 220.76-25.83 222.23-26 223.48-26.35ZM252.88-39.2L252.88-39.2 252.88-5.45Q252.88-3.2 253.65-2.13 254.43-1.05 256.48-1.05L256.48-1.05 256.48 0Q254.93-0.15 253.38-0.15L253.38-0.15Q251.68-0.15 250.2 0 248.73 0.15 247.48 0.55L247.48 0.55 247.48-33.2Q247.48-35.45 246.7-36.52 245.93-37.6 243.88-37.6L243.88-37.6 243.88-38.65Q245.48-38.5 246.98-38.5L246.98-38.5Q248.63-38.5 250.13-38.68 251.63-38.85 252.88-39.2ZM241.63-26.5L241.63-26.5Q243.83-26.5 245.65-25.55 247.48-24.6 248.23-22.35L248.23-22.35 247.63-21.8Q246.93-23.6 245.58-24.43 244.23-25.25 242.53-25.25L242.53-25.25Q239.68-25.25 237.88-22.23 236.08-19.2 236.13-12.9L236.13-12.9Q236.13-8.75 236.83-6.13 237.53-3.5 238.9-2.25 240.28-1 242.23-1L242.23-1Q244.18-1 245.75-2.65 247.33-4.3 247.63-7.4L247.63-7.4 248.08-6.35Q247.58-2.95 245.68-1.13 243.78 0.7 240.58 0.7L240.58 0.7Q237.53 0.7 235.2-0.78 232.88-2.25 231.63-5.28 230.38-8.3 230.38-12.9L230.38-12.9Q230.38-17.45 231.9-20.48 233.43-23.5 235.98-25 238.53-26.5 241.63-26.5ZM297.17-35.4L297.17-35.4Q296.97-33.5 296.9-31.73 296.82-29.95 296.82-29L296.82-29Q296.82-28.05 296.87-27.2 296.92-26.35 296.97-25.8L296.97-25.8 295.82-25.8Q295.47-29 294.75-30.85 294.02-32.7 292.6-33.48 291.17-34.25 288.62-34.25L288.62-34.25 285.17-34.25Q283.57-34.25 282.75-33.98 281.92-33.7 281.62-32.88 281.32-32.05 281.32-30.3L281.32-30.3 281.32-5.1Q281.32-3.4 281.62-2.55 281.92-1.7 282.75-1.43 283.57-1.15 285.17-1.15L285.17-1.15 288.42-1.15Q291.27-1.15 292.95-2.05 294.62-2.95 295.5-5 296.37-7.05 296.82-10.6L296.82-10.6 297.97-10.6Q297.82-9.15 297.82-6.8L297.82-6.8Q297.82-5.8 297.9-3.9 297.97-2 298.17 0L298.17 0Q295.62-0.1 292.42-0.13 289.22-0.15 286.72-0.15L286.72-0.15Q285.17-0.15 282.6-0.15 280.02-0.15 277.1-0.13 274.17-0.1 271.62 0L271.62 0 271.62-1Q273.32-1.1 274.17-1.4 275.02-1.7 275.3-2.6 275.57-3.5 275.57-5.3L275.57-5.3 275.57-30.1Q275.57-31.95 275.3-32.83 275.02-33.7 274.15-34.02 273.27-34.35 271.62-34.4L271.62-34.4 271.62-35.4Q274.17-35.35 277.1-35.3 280.02-35.25 282.6-35.25 285.17-35.25 286.72-35.25L286.72-35.25Q289.02-35.25 291.95-35.27 294.87-35.3 297.17-35.4ZM279.82-18.3L288.87-18.3Q288.87-18.3 288.87-17.8 288.87-17.3 288.87-17.3L288.87-17.3 279.82-17.3Q279.82-17.3 279.82-17.8 279.82-18.3 279.82-18.3L279.82-18.3ZM289.17-24.9L290.32-24.9Q290.12-22.05 290.15-20.55 290.17-19.05 290.17-17.8L290.17-17.8Q290.17-16.55 290.22-15.05 290.27-13.55 290.47-10.7L290.47-10.7 289.32-10.7Q289.07-12.35 288.67-13.88 288.27-15.4 287.25-16.35 286.22-17.3 284.07-17.3L284.07-17.3 284.07-18.3Q286.22-18.3 287.2-19.43 288.17-20.55 288.55-22.1 288.92-23.65 289.17-24.9L289.17-24.9ZM325.07-25.8L325.07-25.8 325.07-24.8Q324.12-24.65 323.3-23.83 322.47-23 321.77-21L321.77-21 313.87 0.2Q313.47 0.2 313.05 0.2 312.62 0.2 312.22 0.2L312.22 0.2 303.12-21.95Q302.32-23.9 301.55-24.33 300.77-24.75 300.22-24.75L300.22-24.75 300.22-25.8Q301.42-25.7 302.69-25.63 303.97-25.55 305.52-25.55L305.52-25.55Q307.07-25.55 308.8-25.63 310.52-25.7 312.02-25.8L312.02-25.8 312.02-24.75Q310.82-24.75 309.9-24.6 308.97-24.45 308.69-23.73 308.42-23 309.02-21.25L309.02-21.25 315.17-5.75 314.77-5.35 319.92-19Q321.02-22 320.22-23.3 319.42-24.6 316.87-24.8L316.87-24.8 316.87-25.8Q318.12-25.75 319.15-25.7 320.17-25.65 321.27-25.65L321.27-25.65Q322.37-25.65 323.35-25.7 324.32-25.75 325.07-25.8ZM338.37-26.5L338.37-26.5Q342.77-26.5 345.27-23.85 347.77-21.2 347.77-15.45L347.77-15.45 330.52-15.45 330.42-16.4 342.47-16.4Q342.52-18.85 342.07-20.93 341.62-23 340.67-24.25 339.72-25.5 338.17-25.5L338.17-25.5Q336.02-25.5 334.44-23.23 332.87-20.95 332.52-15.95L332.52-15.95 332.67-15.7Q332.62-15 332.57-14.18 332.52-13.35 332.52-12.55L332.52-12.55Q332.52-9.1 333.57-6.75 334.62-4.4 336.32-3.23 338.02-2.05 339.77-2.05L339.77-2.05Q341.77-2.05 343.64-3.05 345.52-4.05 346.87-6.75L346.87-6.75 347.87-6.35Q347.27-4.65 346.02-3 344.77-1.35 342.82-0.33 340.87 0.7 338.27 0.7L338.27 0.7Q334.77 0.7 332.17-0.88 329.57-2.45 328.17-5.4 326.77-8.35 326.77-12.4L326.77-12.4Q326.77-16.85 328.22-20 329.67-23.15 332.29-24.83 334.92-26.5 338.37-26.5ZM368.51-26.5L368.51-26.5Q370.51-26.5 371.79-25.98 373.06-25.45 373.91-24.55L373.91-24.55Q374.81-23.6 375.19-22.1 375.56-20.6 375.56-18.05L375.56-18.05 375.56-4.65Q375.56-2.55 376.39-1.8 377.21-1.05 379.16-1.05L379.16-1.05 379.16 0Q378.31-0.05 376.51-0.13 374.71-0.2 372.96-0.2L372.96-0.2Q371.26-0.2 369.59-0.13 367.91-0.05 367.06 0L367.06 0 367.06-1.05Q368.76-1.05 369.46-1.8 370.16-2.55 370.16-4.65L370.16-4.65 370.16-19.45Q370.16-20.9 369.91-22.08 369.66-23.25 368.87-23.98 368.06-24.7 366.46-24.7L366.46-24.7Q363.66-24.7 361.89-22.4 360.12-20.1 360.12-16.7L360.12-16.7 360.12-4.65Q360.12-2.55 360.84-1.8 361.56-1.05 363.21-1.05L363.21-1.05 363.21 0Q362.41-0.05 360.79-0.13 359.16-0.2 357.41-0.2L357.41-0.2Q355.71-0.2 353.87-0.13 352.01-0.05 351.12 0L351.12 0 351.12-1.05Q353.06-1.05 353.89-1.8 354.71-2.55 354.71-4.65L354.71-4.65 354.71-20.35Q354.71-22.6 353.96-23.68 353.21-24.75 351.12-24.75L351.12-24.75 351.12-25.8Q352.71-25.65 354.21-25.65L354.21-25.65Q355.91-25.65 357.39-25.83 358.87-26 360.12-26.35L360.12-26.35 360.12-20.9Q361.41-24 363.69-25.25 365.96-26.5 368.51-26.5ZM390.01-34.05L390.01-34.05 390.01-25.75 396.91-25.75 396.91-24.75 390.01-24.75 390.01-5.1Q390.01-3.05 390.76-2.2 391.51-1.35 392.91-1.35L392.91-1.35Q394.21-1.35 395.24-2.4 396.26-3.45 397.01-5.95L397.01-5.95 397.96-5.6Q397.36-2.95 395.84-1.13 394.31 0.7 391.36 0.7L391.36 0.7Q389.66 0.7 388.51 0.28 387.36-0.15 386.51-0.95L386.51-0.95Q385.41-2.1 385.01-3.7 384.61-5.3 384.61-7.95L384.61-7.95 384.61-24.75 380.01-24.75 380.01-25.75 384.61-25.75 384.61-33.05Q386.16-33.1 387.51-33.33 388.86-33.55 390.01-34.05ZM408.21-26.5L408.21-26.5Q410.21-26.5 411.68-25.88 413.16-25.25 413.81-24.75L413.81-24.75Q415.46-23.45 415.86-26.45L415.86-26.45 416.96-26.45Q416.86-25.05 416.81-23.08 416.76-21.1 416.76-17.85L416.76-17.85 415.66-17.85Q415.36-19.7 414.63-21.45 413.91-23.2 412.53-24.35 411.16-25.5 408.96-25.5L408.96-25.5Q407.31-25.5 406.21-24.58 405.11-23.65 405.11-21.85L405.11-21.85Q405.11-20.35 406.01-19.25 406.91-18.15 408.33-17.2 409.76-16.25 411.41-15.15L411.41-15.15Q414.16-13.3 416.06-11.4 417.96-9.5 417.96-6.45L417.96-6.45Q417.96-4.15 416.73-2.55 415.51-0.95 413.51-0.13 411.51 0.7 409.11 0.7L409.11 0.7Q407.91 0.7 406.86 0.48 405.81 0.25 404.91-0.1L404.91-0.1Q404.36-0.4 403.83-0.73 403.31-1.05 402.81-1.35L402.81-1.35Q402.31-1.7 401.91-1.25 401.51-0.8 401.31 0.35L401.31 0.35 400.21 0.35Q400.31-1.25 400.36-3.55 400.41-5.85 400.41-9.65L400.41-9.65 401.51-9.65Q401.86-6.9 402.56-4.8 403.26-2.7 404.63-1.53 406.01-0.35 408.41-0.35L408.41-0.35Q409.81-0.35 411.16-1.33 412.51-2.3 412.51-4.7L412.51-4.7Q412.51-6.9 410.98-8.33 409.46-9.75 407.06-11.35L407.06-11.35Q405.36-12.55 403.83-13.73 402.31-14.9 401.36-16.38 400.41-17.85 400.41-19.9L400.41-19.9Q400.41-22.15 401.48-23.6 402.56-25.05 404.36-25.78 406.16-26.5 408.21-26.5Z" opacity="1" transform="matrix(1,0,0,1,0,0)" fill="#000000" class="undefined-text-0" data-fill-palette-color="primary" id="text-0"></path></svg></g></svg></g></svg></g></svg></g></svg></g></svg></g></svg></g></svg></g><defs></defs></svg><rect width="395.52" height="247.2" fill="none" stroke="none" visibility="hidden"></rect></g></svg></g></svg>